<svg version="1.1" id="Layer_1" xmlns="http://www.w3.org/2000/svg" xmlns:xlink="http://www.w3.org/1999/xlink" x="0px" y="0px"
	 width="304" height='304' viewBox="0 0 2000 1500" enable-background="new 0 0 2000 1500" xml:space="preserve">
<path fill="#000000" opacity="1.000000" stroke="none" 
	d="
M1365.000000,1501.000000 
	C910.000122,1501.000000 455.500275,1501.000000 1.000305,1501.000000 
	C1.000203,1001.000305 1.000203,501.000580 1.000102,1.000640 
	C667.666199,1.000427 1334.332397,1.000427 2000.998901,1.000213 
	C2000.999268,500.999359 2000.999268,1000.998718 2000.999634,1500.999023 
	C1789.166626,1501.000000 1577.333374,1501.000000 1365.000000,1501.000000 
M806.798157,747.376526 
	C806.340759,748.060852 805.863953,748.733154 805.429138,749.431580 
	C803.042358,753.265259 803.568665,757.230713 806.774292,759.652466 
	C810.023193,762.106873 813.784119,761.391052 816.778015,757.766479 
	C817.366516,757.054016 818.010925,756.387756 818.840088,755.466248 
	C821.707642,758.160889 824.764709,761.379272 828.134644,757.562561 
	C829.383728,756.147888 829.607605,752.105774 828.490479,750.642517 
	C824.941956,745.994446 821.681824,750.182251 818.652039,752.157532 
	C814.017090,746.874084 814.017273,746.875732 806.216858,747.821472 
	C806.170105,747.827087 806.052856,747.250549 806.010742,746.219788 
	C811.173218,740.785522 815.228333,740.535767 822.066284,744.179382 
	C823.670776,745.034424 827.647217,744.406128 828.402832,743.164429 
	C829.437378,741.464417 829.249084,737.900513 828.037537,736.326843 
	C827.154114,735.179565 823.257874,735.074707 821.599426,736.040833 
	C816.633118,738.934021 811.501282,738.461548 807.244202,735.236389 
	C805.181213,733.673401 801.360901,733.170654 798.783752,733.860352 
	C795.465271,734.748535 793.806641,738.513916 795.358643,741.546204 
	C796.570801,743.914429 799.645996,745.465027 802.139587,746.971252 
	C803.071960,747.534485 804.701172,746.943909 806.798157,747.376526 
M801.209717,289.363525 
	C800.836609,289.334900 800.463440,289.306244 799.382446,289.068115 
	C793.721008,288.226074 788.085815,287.026794 782.393250,286.608307 
	C764.603455,285.300598 746.791931,284.287750 728.061707,283.024231 
	C708.683960,283.704590 689.288452,284.078339 669.936646,285.204529 
	C661.250122,285.710052 652.651245,287.720978 643.164551,288.974884 
	C631.419434,291.326508 619.476685,292.972473 607.974792,296.192871 
	C590.095581,301.198822 572.516296,307.275818 554.061218,312.946198 
	C549.750427,314.633423 545.407288,316.242737 541.134155,318.020477 
	C514.448669,329.122467 488.850616,342.282684 464.194336,358.751343 
	C453.803131,366.151398 442.882965,372.920990 433.140778,381.094635 
	C417.285248,394.397278 402.199829,408.617798 386.186646,422.795410 
	C372.452789,438.763245 357.836029,454.069672 345.237946,470.888275 
	C333.081696,487.116974 323.008331,504.905884 311.466522,522.413574 
	C281.134308,576.723083 262.381989,634.829834 255.255859,696.569458 
	C251.296677,730.871155 251.321274,765.272766 254.859100,799.685181 
	C258.534454,835.435364 266.283417,870.237000 278.070740,904.142212 
	C285.472900,925.433960 293.832550,946.338257 305.099121,966.707581 
	C314.068634,981.781555 322.062927,997.554749 332.246826,1011.757935 
	C345.933380,1030.846069 361.310364,1048.722046 376.188568,1067.742676 
	C377.550873,1069.197021 378.900909,1070.663086 380.277344,1072.103882 
	C403.261566,1096.162476 428.100128,1118.044800 456.287720,1136.975220 
	C476.284576,1150.745605 497.151855,1163.054688 519.245972,1173.113647 
	C532.620117,1179.202637 546.396179,1184.408936 560.464966,1190.560303 
	C575.588684,1195.176514 590.562317,1200.390991 605.879578,1204.236084 
	C620.402039,1207.881836 635.284729,1210.092773 650.705017,1213.309814 
	C673.994019,1216.968994 697.402161,1218.779175 721.915894,1217.987305 
	C748.204773,1218.732300 774.230652,1216.201538 800.659302,1211.785278 
	C800.967224,1211.587891 801.275208,1211.390503 801.850586,1211.290283 
	C801.850586,1211.290283 802.035034,1211.073608 802.890442,1211.096558 
	C803.886353,1211.021484 804.900574,1211.042480 805.875610,1210.857300 
	C858.512573,1200.862427 908.121277,1182.644531 954.510681,1155.814941 
	C984.279358,1138.598022 1011.784790,1118.260864 1037.105225,1094.983765 
	C1037.829346,1094.318115 1038.327759,1093.407227 1039.290283,1092.137085 
	C1030.859497,1092.137085 1023.189575,1092.407837 1015.551147,1092.034668 
	C1011.033875,1091.813965 1007.746643,1093.364502 1004.370178,1096.146362 
	C955.403259,1136.490845 900.326904,1165.164917 839.137085,1181.950928 
	C826.547607,1185.404541 813.739990,1188.062866 800.180786,1191.020386 
	C774.300293,1195.385254 748.239319,1197.782227 721.070496,1198.041260 
	C713.591309,1197.829834 706.085876,1197.943359 698.638428,1197.340210 
	C682.434265,1196.027710 666.259644,1194.349854 649.452637,1192.354248 
	C639.232361,1190.369141 628.840027,1189.011108 618.828369,1186.265259 
	C599.430908,1180.945190 580.247559,1174.844360 560.425293,1168.616699 
	C532.985229,1158.044189 506.771759,1145.016846 481.929504,1129.269653 
	C473.566711,1123.968506 465.304749,1118.508545 456.345032,1112.854736 
	C455.698700,1112.102539 455.148560,1111.232300 454.391479,1110.616211 
	C444.909424,1102.899536 434.846924,1095.799194 426.013275,1087.404297 
	C410.013153,1072.198730 394.741028,1056.227051 378.955841,1039.955688 
	C370.814514,1029.444824 362.373688,1019.150391 354.591888,1008.379822 
	C336.254517,982.999634 321.443848,955.586731 308.665344,926.295044 
	C302.929626,910.482056 296.663788,894.837585 291.572388,878.819763 
	C281.999817,848.703918 276.555634,817.686279 274.130402,786.222473 
	C272.134369,760.327026 272.355499,734.405212 274.791840,708.476624 
	C277.669830,677.848267 283.126343,647.736633 292.735779,618.555298 
	C299.082123,599.283142 306.998047,580.527832 314.759247,561.067078 
	C325.726166,541.581543 335.659210,521.413025 347.952667,502.803864 
	C360.084686,484.439148 374.604675,467.651917 388.689178,449.883759 
	C391.769867,446.623566 394.837952,443.351410 397.933289,440.105164 
	C418.632660,418.396515 441.629547,399.375214 466.660522,381.806824 
	C477.723328,374.861694 488.406189,367.193176 499.935944,361.137054 
	C518.327637,351.476624 537.282654,342.888763 556.743225,333.845520 
	C574.455383,328.165833 592.066956,322.141144 609.916504,316.932373 
	C621.099487,313.669037 632.640564,311.632904 644.893066,309.146576 
	C673.085327,304.710388 701.450073,302.600891 730.874573,302.986938 
	C743.614746,303.920197 756.379211,304.607849 769.087830,305.861084 
	C780.086914,306.945740 791.022827,308.672272 802.582397,310.596497 
	C829.336731,315.460693 855.342896,322.967651 880.728699,332.679535 
	C926.122925,350.046021 967.476562,374.323425 1004.978333,405.211975 
	C1006.617188,406.561798 1008.451538,408.603027 1010.255005,408.668762 
	C1019.769531,409.015503 1029.303467,408.831329 1039.706299,408.831329 
	C1038.548828,407.478180 1038.180054,406.947449 1037.716553,406.519409 
	C1011.283264,382.109009 982.337036,361.122009 951.150879,343.222565 
	C918.895081,324.709167 884.722351,310.613647 849.006653,300.468353 
	C833.596313,296.090942 817.715332,293.370483 801.872192,289.677826 
	C801.872192,289.677826 801.609741,289.776855 801.209717,289.363525 
M1161.319336,585.500488 
	C1161.319336,544.207642 1161.319336,502.914825 1161.319336,461.672943 
	C1155.336426,461.672943 1149.958252,461.672943 1144.624268,461.672943 
	C1144.624268,592.343262 1144.624268,722.579956 1144.624268,852.840515 
	C1150.364380,852.840515 1155.765015,852.840515 1161.319336,852.840515 
	C1161.319336,763.821289 1161.319336,675.160950 1161.319336,585.500488 
M1053.344238,663.500488 
	C1053.344238,596.246155 1053.344238,528.991760 1053.344238,461.502747 
	C1049.411255,461.502747 1046.005005,461.502747 1042.326416,461.502747 
	C1042.326416,592.078979 1042.326416,722.397400 1042.326416,852.949097 
	C1045.988647,852.949097 1049.418945,852.949097 1053.344116,852.949097 
	C1053.344116,790.018188 1053.344116,727.259338 1053.344238,663.500488 
M1019.412537,848.134399 
	C1019.486633,849.726501 1019.560791,851.318604 1019.635437,852.922119 
	C1021.688599,852.922119 1023.257019,852.922119 1024.791992,852.922119 
	C1024.791992,722.252258 1024.791992,591.892822 1024.791992,461.170624 
	C1022.899292,461.287933 1021.341492,461.384521 1019.412659,461.504089 
	C1019.412659,590.377136 1019.412659,718.799622 1019.412537,848.134399 
M1093.320435,796.499939 
	C1093.320435,815.269165 1093.320435,834.038391 1093.320435,853.272278 
	C1095.495605,853.153320 1097.056519,853.067932 1098.483032,852.989929 
	C1098.483032,722.212341 1098.483032,591.935242 1098.483032,461.405518 
	C1096.765625,461.405518 1095.347656,461.405518 1093.320557,461.405518 
	C1093.320557,572.929688 1093.320557,684.214783 1093.320435,796.499939 
M1133.007446,737.500000 
	C1133.007446,775.932495 1133.007446,814.364929 1133.007446,852.821899 
	C1135.209473,852.821899 1136.922974,852.821899 1138.512939,852.821899 
	C1138.512939,722.190002 1138.512939,591.958496 1138.512939,461.472229 
	C1136.646851,461.472229 1135.077393,461.472229 1133.007446,461.472229 
	C1133.007446,553.316223 1133.007446,644.908142 1133.007446,737.500000 
M1116.030029,678.500000 
	C1116.030029,736.610535 1116.030029,794.721130 1116.030029,852.902222 
	C1118.002563,852.902222 1119.406860,852.902222 1120.827148,852.902222 
	C1120.827148,722.247131 1120.827148,591.873474 1120.827148,461.149170 
	C1119.004639,461.340576 1117.614136,461.486603 1116.030029,461.652954 
	C1116.030029,533.868713 1116.030029,605.684326 1116.030029,678.500000 
M843.064941,777.815735 
	C849.060486,777.817932 855.060059,777.957031 861.050476,777.782898 
	C866.754333,777.617126 869.753784,774.676941 869.833252,769.090698 
	C869.973022,759.266541 869.966919,749.437866 869.838867,739.613464 
	C869.763916,733.862671 866.860046,731.040222 861.177307,730.941772 
	C855.349976,730.840759 849.519043,730.867554 843.690674,730.929565 
	C837.310486,730.997437 834.583801,733.628784 834.510193,740.054688 
	C834.401489,749.546448 834.509888,759.040527 834.474121,768.533325 
	C834.454163,773.822449 836.787170,777.060303 843.064941,777.815735 
M1082.246338,887.908630 
	C1081.427490,891.277161 1081.081543,894.856201 1079.694702,897.971863 
	C1076.480713,905.192261 1068.967407,906.248718 1063.123047,900.463867 
	C1062.016357,901.846008 1060.924316,903.209839 1059.836182,904.568726 
	C1068.605469,911.673096 1079.620239,910.085083 1084.219604,900.668152 
	C1089.297607,890.271301 1089.934814,879.134888 1086.005859,868.192993 
	C1083.233276,860.471375 1076.336182,857.067810 1069.365234,859.003906 
	C1062.097168,861.022583 1057.873413,868.352600 1058.861084,877.233215 
	C1059.632812,884.170593 1065.093872,889.444275 1072.345703,889.423645 
	C1075.522583,889.414673 1078.695435,887.975769 1082.246338,887.908630 
M1192.712769,903.213257 
	C1190.817749,903.213257 1188.922852,903.213257 1185.707031,903.213257 
	C1188.071045,900.951965 1189.508545,899.863220 1190.590210,898.493591 
	C1195.802490,891.894775 1201.992920,885.773010 1205.776367,878.421875 
	C1209.803833,870.596680 1205.899292,862.248535 1199.020508,859.541321 
	C1191.180664,856.455933 1180.443237,860.568909 1177.713623,868.645691 
	C1178.906128,869.496338 1180.170776,870.398376 1180.675049,870.758057 
	C1183.576660,868.394836 1185.686157,865.871338 1188.385132,864.633240 
	C1195.733276,861.262756 1201.891724,865.417847 1200.998779,873.368896 
	C1200.578491,877.109741 1198.895874,881.197693 1196.541870,884.130493 
	C1191.662354,890.210205 1185.852173,895.534302 1180.647095,901.367615 
	C1179.201050,902.988220 1178.536255,905.305908 1177.131836,908.047974 
	C1188.134277,908.047974 1197.681396,908.047974 1207.332031,908.047974 
	C1207.332031,906.288147 1207.332031,904.872681 1207.332031,903.213257 
	C1202.590210,903.213257 1198.124146,903.213257 1192.712769,903.213257 
M1050.670044,891.994568 
	C1048.890625,891.717651 1047.111084,891.440735 1044.922241,891.100159 
	C1044.922241,880.455505 1044.922241,869.836609 1044.922241,857.329041 
	C1041.824341,859.481018 1039.369873,860.422791 1038.085815,862.206970 
	C1031.667969,871.124146 1025.483521,880.213318 1019.403381,889.365845 
	C1018.253845,891.096191 1017.948303,893.387207 1017.003540,896.150146 
	C1024.868774,896.150146 1031.627930,896.150146 1038.825439,896.150146 
	C1038.825439,900.338989 1038.825439,904.099365 1038.825439,908.083191 
	C1041.037720,908.083191 1042.792358,908.083191 1045.139648,908.083191 
	C1045.139648,903.956787 1045.139648,900.075073 1045.139648,896.729675 
	C1047.615112,895.286682 1051.797363,897.914612 1050.670044,891.994568 
M1155.849609,864.224670 
	C1150.107056,872.594849 1144.286255,880.913269 1138.686523,889.378113 
	C1137.538208,891.113953 1137.218018,893.397644 1136.262085,896.163818 
	C1144.083618,896.163818 1150.841309,896.163818 1157.990234,896.163818 
	C1157.990234,900.372131 1157.990234,904.128845 1157.990234,908.112244 
	C1160.159912,908.112244 1161.918457,908.112244 1164.301514,908.112244 
	C1164.301514,904.019287 1164.301514,900.147278 1164.301514,896.267456 
	C1166.548950,896.120300 1168.174805,896.013855 1169.914429,895.899902 
	C1169.914429,894.443787 1169.914429,893.197937 1169.914429,891.863098 
	C1167.910278,891.597046 1166.154419,891.363892 1163.946289,891.070679 
	C1163.946289,880.293030 1163.946289,869.717957 1163.946289,859.171143 
	C1159.396973,859.067444 1159.396973,859.067444 1155.849609,864.224670 
M1113.323730,883.641602 
	C1110.723633,891.649292 1108.123413,899.656921 1105.491699,907.762085 
	C1109.529541,909.165222 1111.464966,908.274231 1112.753052,904.304199 
	C1116.949951,891.369690 1121.604858,878.584290 1126.008423,865.715820 
	C1126.709351,863.666992 1127.023193,861.485657 1127.543579,859.247192 
	C1117.550659,859.247192 1108.462646,859.247192 1099.313477,859.247192 
	C1099.313477,860.910034 1099.313477,862.295715 1099.313477,864.138794 
	C1106.285522,864.138794 1112.994507,864.138794 1120.180054,864.138794 
	C1117.874878,870.775879 1115.764282,876.852844 1113.323730,883.641602 
M901.184509,692.162537 
	C894.492737,692.822998 890.659851,698.813599 894.877075,702.722107 
	C898.490417,706.070923 898.078552,709.531799 898.112793,713.354248 
	C898.160461,718.673889 898.127075,723.994202 898.124268,729.314270 
	C898.119324,738.691711 897.156128,739.676453 887.822083,738.736694 
	C886.347168,738.588257 885.124146,736.520935 883.596497,736.177185 
	C881.278992,735.655701 877.925964,734.881653 876.621277,736.034851 
	C875.226990,737.267090 874.656189,741.292542 875.662781,742.833496 
	C876.589417,744.252014 880.119507,744.489014 882.446228,744.343323 
	C885.412659,744.157593 888.300354,742.590698 891.260681,742.453369 
	C899.243530,742.083008 901.663635,739.975952 901.793091,731.966125 
	C901.916626,724.320496 901.742065,716.669739 901.896973,709.025269 
	C901.925842,707.599670 902.510071,705.795837 903.493652,704.844482 
	C908.551147,699.953247 908.126953,695.893677 901.184509,692.162537 
M827.498962,718.433716 
	C822.608215,714.994629 817.732971,711.533203 812.820251,708.125793 
	C810.372375,706.428101 808.145264,705.146179 808.913757,701.145142 
	C809.618774,697.474670 805.735291,694.286072 801.954956,694.312805 
	C798.184326,694.339478 795.026794,697.442261 794.873291,701.271545 
	C794.716309,705.186096 797.734131,709.281738 801.355103,708.455322 
	C806.725647,707.229614 809.631226,710.539429 813.274780,712.866760 
	C821.230286,717.948547 827.963745,725.758972 838.925354,724.226685 
	C839.908936,724.089172 841.131531,726.091125 842.200623,726.047974 
	C844.570801,725.952087 847.710693,725.909607 849.016785,724.468201 
	C850.069458,723.306458 849.723938,719.087402 848.494995,718.104370 
	C846.976746,716.889832 842.806946,716.553162 841.693909,717.696899 
	C837.247375,722.266113 832.806885,720.535583 827.498962,718.433716 
M829.821472,765.585999 
	C828.057556,762.671021 824.645264,761.418762 822.618530,763.334045 
	C818.533630,767.194275 814.001526,765.764099 809.577759,765.972351 
	C803.403442,766.262817 800.431091,768.932373 800.085144,775.136841 
	C799.900146,778.456421 800.299744,781.827209 799.897339,785.108826 
	C799.673462,786.934387 798.739258,789.031128 797.436218,790.295654 
	C794.178101,793.457703 793.456970,797.730835 796.171326,800.947388 
	C798.889343,804.168396 803.846619,804.331665 806.793091,801.297119 
	C809.813171,798.187012 809.571899,793.862183 806.268677,790.674011 
	C805.377686,789.814148 803.998962,788.802551 803.965576,787.822388 
	C803.801880,783.007629 803.916992,778.174561 804.179260,773.361450 
	C804.232910,772.376770 805.334961,770.628906 805.960083,770.626099 
	C810.751038,770.604431 815.554810,770.793945 820.330872,771.198914 
	C822.762268,771.405029 825.529968,773.157776 827.424194,772.402405 
	C828.878296,771.822388 829.203552,768.411682 829.821472,765.585999 
M895.147217,794.080505 
	C894.388855,798.396667 895.576599,801.773254 900.059570,803.112793 
	C903.711365,804.203979 906.820007,802.939392 908.440063,799.509705 
	C910.230713,795.718994 909.121399,792.527405 905.691711,789.900757 
	C904.642761,789.097412 904.056580,787.225464 903.927124,785.782898 
	C903.660095,782.807007 903.914185,779.788757 903.827148,776.791626 
	C903.594116,768.771179 900.783936,766.074951 892.835388,766.009583 
	C888.824646,765.976624 884.766968,766.874573 881.255432,763.338257 
	C880.400391,762.477234 876.042358,763.516907 874.922119,764.952393 
	C873.856262,766.318237 874.070251,770.152771 875.277100,771.416931 
	C876.532715,772.732117 880.745605,773.386719 881.762695,772.389465 
	C885.972717,768.262085 890.893982,770.141357 895.439941,770.110168 
	C896.923035,770.099976 899.669373,772.782227 899.703186,774.281433 
	C899.852539,780.890015 902.410339,788.262085 895.147217,794.080505 
M854.029175,723.062317 
	C856.776245,727.140076 859.736755,728.197510 862.420959,725.707275 
	C865.424438,722.920715 865.101379,719.976379 862.178589,717.119080 
	C861.469666,716.426086 861.011414,715.207642 860.923889,714.189026 
	C859.924072,702.559998 859.949219,702.557861 848.149109,702.555542 
	C847.484009,702.555420 846.733093,702.757996 846.169189,702.519104 
	C844.103699,701.643921 841.698364,701.041992 840.157593,699.567505 
	C836.957703,696.505188 832.567261,695.945129 829.486694,698.828735 
	C826.333496,701.780396 826.373352,706.505188 829.576172,709.424500 
	C832.660400,712.235779 836.997681,711.691956 840.213074,708.509521 
	C841.421570,707.313293 843.310181,706.455872 845.007202,706.184387 
	C847.439026,705.795410 849.998535,706.280762 852.468994,706.039551 
	C856.249695,705.670410 857.937073,707.265808 857.137634,710.887329 
	C856.289612,714.729553 855.005432,718.475403 854.029175,723.062317 
M819.020203,788.620972 
	C818.370544,791.771790 817.962646,794.682129 814.789551,796.963867 
	C811.802856,799.111572 811.993469,802.938721 814.297241,805.934143 
	C816.576965,808.898254 819.691956,809.755676 823.187866,808.010071 
	C828.126648,805.544006 828.477356,799.601929 824.199280,795.571045 
	C823.095093,794.530579 822.470947,792.731018 822.197754,791.179565 
	C822.086670,790.548523 823.567810,788.924377 824.207520,788.985107 
	C830.030762,789.537598 836.241333,786.343384 841.750916,791.214966 
	C842.959167,792.283264 846.783936,791.832642 848.300293,790.657654 
	C849.518433,789.713745 849.963135,786.096069 849.105774,784.621460 
	C848.252319,783.153564 844.349243,781.615967 843.505493,782.284058 
	C837.981262,786.657959 831.691223,784.133057 825.847412,785.065369 
	C823.584473,785.426270 821.501465,786.915222 819.020203,788.620972 
M869.594421,784.945251 
	C867.197632,784.228577 864.834106,783.112610 862.394592,782.909546 
	C860.034973,782.713135 856.878845,782.684143 855.424133,784.036011 
	C854.290100,785.089905 854.323425,789.378845 855.473877,790.416626 
	C856.946533,791.744934 861.278137,792.374207 862.237915,791.332764 
	C864.999146,788.336487 868.101318,788.591309 871.299255,788.867737 
	C872.864136,789.003052 875.445251,789.924500 875.610474,790.842285 
	C875.874817,792.310059 874.920532,794.490479 873.756897,795.629456 
	C870.322205,798.991089 869.707458,803.509155 872.719849,806.624329 
	C875.615845,809.619019 880.030396,809.656433 882.976746,806.711182 
	C886.111267,803.577820 885.726318,798.936035 882.216248,795.737915 
	C881.232239,794.841248 880.163269,793.650146 879.890320,792.425354 
	C878.400818,785.741699 877.695435,785.091797 869.594421,784.945251 
M877.205078,749.370300 
	C873.841736,751.559082 872.649841,754.533142 875.395081,757.711060 
	C878.113647,760.858154 881.051575,759.997620 883.967468,757.249695 
	C886.594299,754.774109 896.531006,755.809143 898.869019,758.442200 
	C902.093933,762.074036 906.717285,762.450012 909.767639,759.328552 
	C912.671143,756.357483 912.590210,751.933594 909.580017,749.070984 
	C906.329834,745.979980 902.157166,746.521973 898.658508,750.127747 
	C897.568909,751.250732 895.739990,752.283020 894.254456,752.276306 
	C889.973816,752.257019 885.301941,753.763062 881.727783,749.638977 
	C881.098389,748.912720 879.242004,749.249756 877.205078,749.370300 
M1113.169434,1025.582886 
	C1113.593262,1030.292969 1112.407593,1035.248657 1115.007080,1039.694336 
	C1116.057251,1035.862793 1116.315308,1032.102783 1115.987427,1028.394653 
	C1115.633667,1024.393921 1117.109619,1023.275269 1121.027588,1023.263245 
	C1125.037231,1023.250977 1126.799561,1024.212769 1126.456177,1028.541626 
	C1126.162231,1032.246582 1126.605591,1036.010132 1126.722900,1039.747681 
	C1127.416870,1039.730469 1128.110718,1039.713257 1128.804688,1039.696045 
	C1128.804688,1034.234497 1128.986206,1028.760864 1128.628052,1023.322876 
	C1128.567505,1022.405334 1126.198486,1020.955017 1124.864014,1020.918091 
	C1116.735840,1020.693237 1108.598145,1020.805908 1100.524292,1020.805908 
	C1099.190063,1031.659058 1099.785278,1037.952148 1102.905273,1040.005005 
	C1102.905273,1034.382324 1102.905273,1029.196899 1102.905273,1022.907959 
	C1106.836060,1023.569092 1109.924805,1024.088501 1113.169434,1025.582886 
M1020.198792,1035.489502 
	C1020.198792,1033.566162 1020.198792,1031.642944 1020.198792,1028.669189 
	C1025.662720,1028.669189 1030.479126,1028.669189 1035.295410,1028.669189 
	C1035.265259,1027.987061 1035.235229,1027.304932 1035.205078,1026.622803 
	C1030.253662,1026.622803 1025.302246,1026.622803 1020.402405,1026.622803 
	C1020.402405,1023.531860 1020.402405,1021.432434 1020.402405,1018.523376 
	C1026.735107,1018.523376 1032.839722,1018.523376 1038.944336,1018.523376 
	C1038.947754,1017.828369 1038.951050,1017.133423 1038.954468,1016.438416 
	C1032.050293,1015.636414 1025.060181,1016.291626 1017.894592,1016.063782 
	C1017.894592,1024.169922 1017.894592,1031.854126 1017.894592,1039.494873 
	C1031.922119,1040.718750 1037.603760,1040.123413 1039.057373,1036.510620 
	C1032.607910,1036.510620 1026.504517,1036.510620 1020.198792,1035.489502 
M1056.124268,1039.184692 
	C1056.990967,1038.564209 1058.499390,1038.036499 1058.604980,1037.306030 
	C1058.934692,1035.026489 1058.736328,1032.670044 1058.738281,1030.343506 
	C1058.744385,1023.471802 1058.743530,1023.471741 1065.816895,1023.478699 
	C1072.310303,1023.485046 1072.311035,1023.485107 1072.319824,1029.947876 
	C1072.322632,1031.942139 1072.192139,1033.947632 1072.365601,1035.926758 
	C1072.485107,1037.290771 1073.022705,1038.618286 1073.373413,1039.962036 
	C1073.973999,1039.898926 1074.574585,1039.835693 1075.175171,1039.772583 
	C1075.175171,1035.220459 1075.086670,1030.666260 1075.202515,1026.117065 
	C1075.299316,1022.316223 1073.588013,1020.613708 1069.820923,1020.699890 
	C1066.250366,1020.781677 1062.676514,1020.717468 1059.599365,1020.717468 
	C1058.752441,1018.000183 1058.178711,1016.159546 1057.604980,1014.318970 
	C1057.037720,1014.446655 1056.470337,1014.574341 1055.902954,1014.702026 
	C1055.902954,1022.600952 1055.902954,1030.499878 1056.124268,1039.184692 
M1077.720581,1036.496704 
	C1078.717041,1037.508667 1079.682739,1039.354370 1080.715088,1039.392578 
	C1085.974976,1039.586914 1091.252686,1039.322998 1096.521484,1039.145874 
	C1096.642456,1039.141846 1096.734131,1038.267822 1097.027710,1036.962524 
	C1092.741089,1036.962524 1088.683105,1036.805298 1084.643433,1037.008179 
	C1080.834473,1037.199463 1079.411743,1035.881836 1080.845215,1031.570923 
	C1086.042236,1031.570923 1091.296509,1031.570923 1096.577148,1031.570923 
	C1096.743164,1030.363281 1097.048828,1029.654419 1096.883789,1029.081299 
	C1096.110840,1026.397461 1095.443481,1021.585632 1094.311646,1021.462585 
	C1089.195435,1020.906616 1083.920532,1021.556152 1078.747192,1022.155273 
	C1078.190430,1022.219788 1077.647583,1024.761108 1077.576050,1026.177612 
	C1077.416626,1029.329956 1077.560059,1032.497681 1077.720581,1036.496704 
M1045.071411,1035.061035 
	C1045.071411,1031.295532 1045.071411,1027.530029 1045.071411,1023.850769 
	C1048.140991,1023.452515 1050.675781,1023.123718 1053.210571,1022.794861 
	C1053.188232,1022.218811 1053.165894,1021.642761 1053.143555,1021.066711 
	C1050.542236,1020.890198 1047.940796,1020.713623 1045.352173,1020.537903 
	C1045.099609,1018.389954 1044.878662,1016.510254 1044.604492,1014.178406 
	C1043.557739,1014.740967 1042.552979,1015.024597 1042.549194,1015.320557 
	C1042.462769,1022.433899 1042.138550,1029.581177 1042.804321,1036.632812 
	C1042.923340,1037.893555 1047.151367,1039.003174 1049.619141,1039.692017 
	C1050.644531,1039.978149 1052.029297,1038.976562 1053.250732,1038.560547 
	C1053.076172,1038.187622 1052.901489,1037.814819 1052.726929,1037.441895 
	C1050.236572,1036.943481 1047.746338,1036.445068 1045.071411,1035.061035 
z"/>
<path fill="#6DDBF2" opacity="1.000000" stroke="none" 
	d="
M314.211243,561.541077 
	C306.998047,580.527832 299.082123,599.283142 292.735779,618.555298 
	C283.126343,647.736633 277.669830,677.848267 274.791840,708.476624 
	C272.355499,734.405212 272.134369,760.327026 274.130402,786.222473 
	C276.555634,817.686279 281.999817,848.703918 291.572388,878.819763 
	C296.663788,894.837585 302.929626,910.482056 308.368835,926.810364 
	C307.715729,929.044067 307.069031,930.759277 307.050659,932.481262 
	C306.949585,941.964478 307.097900,951.451111 306.913116,960.931763 
	C306.880035,962.629395 305.687439,964.304443 305.030212,965.989929 
	C293.832550,946.338257 285.472900,925.433960 278.070740,904.142212 
	C266.283417,870.237000 258.534454,835.435364 254.859100,799.685181 
	C251.321274,765.272766 251.296677,730.871155 255.255859,696.569458 
	C262.381989,634.829834 281.134308,576.723083 311.987000,522.545471 
	C312.572266,532.536194 312.523712,542.397888 312.768341,552.252258 
	C312.845459,555.358521 313.708099,558.445374 314.211243,561.541077 
z"/>
<path fill="#668AEC" opacity="1.000000" stroke="none" 
	d="
M1161.319336,586.000488 
	C1161.319336,675.160950 1161.319336,763.821289 1161.319336,852.840515 
	C1155.765015,852.840515 1150.364380,852.840515 1144.624268,852.840515 
	C1144.624268,722.579956 1144.624268,592.343262 1144.624268,461.672943 
	C1149.958252,461.672943 1155.336426,461.672943 1161.319336,461.672943 
	C1161.319336,502.914825 1161.319336,544.207642 1161.319336,586.000488 
z"/>
<path fill="#656BEF" opacity="1.000000" stroke="none" 
	d="
M801.032959,1191.087891 
	C813.739990,1188.062866 826.547607,1185.404541 839.137085,1181.950928 
	C900.326904,1165.164917 955.403259,1136.490845 1004.370178,1096.146362 
	C1007.746643,1093.364502 1011.033875,1091.813965 1015.551147,1092.034668 
	C1023.189575,1092.407837 1030.859497,1092.137085 1039.290283,1092.137085 
	C1038.327759,1093.407227 1037.829346,1094.318115 1037.105225,1094.983765 
	C1011.784790,1118.260864 984.279358,1138.598022 954.510681,1155.814941 
	C908.121277,1182.644531 858.512573,1200.862427 805.875610,1210.857300 
	C804.900574,1211.042480 803.886353,1211.021484 802.455017,1210.612793 
	C801.690735,1203.782104 801.361816,1197.434937 801.032959,1191.087891 
z"/>
<path fill="#656BEF" opacity="1.000000" stroke="none" 
	d="
M802.048157,289.897308 
	C817.715332,293.370483 833.596313,296.090942 849.006653,300.468353 
	C884.722351,310.613647 918.895081,324.709167 951.150879,343.222565 
	C982.337036,361.122009 1011.283264,382.109009 1037.716553,406.519409 
	C1038.180054,406.947449 1038.548828,407.478180 1039.706299,408.831329 
	C1029.303467,408.831329 1019.769531,409.015503 1010.255005,408.668762 
	C1008.451538,408.603027 1006.617188,406.561798 1004.978333,405.211975 
	C967.476562,374.323425 926.122925,350.046021 880.728699,332.679535 
	C855.342896,322.967651 829.336731,315.460693 802.290771,309.879639 
	C802.015503,302.740936 802.031860,296.319122 802.048157,289.897308 
z"/>
<path fill="#6895EF" opacity="1.000000" stroke="none" 
	d="
M1053.344238,664.000488 
	C1053.344116,727.259338 1053.344116,790.018188 1053.344116,852.949097 
	C1049.418945,852.949097 1045.988647,852.949097 1042.326416,852.949097 
	C1042.326416,722.397400 1042.326416,592.078979 1042.326416,461.502747 
	C1046.005005,461.502747 1049.411255,461.502747 1053.344238,461.502747 
	C1053.344238,528.991760 1053.344238,596.246155 1053.344238,664.000488 
z"/>
<path fill="#6185E1" opacity="1.000000" stroke="none" 
	d="
M1019.412598,847.678223 
	C1019.412659,718.799622 1019.412659,590.377136 1019.412659,461.504089 
	C1021.341492,461.384521 1022.899292,461.287933 1024.791992,461.170624 
	C1024.791992,591.892822 1024.791992,722.252258 1024.791992,852.922119 
	C1023.257019,852.922119 1021.688599,852.922119 1019.635437,852.922119 
	C1019.560791,851.318604 1019.486633,849.726501 1019.412598,847.678223 
z"/>
<path fill="#6CD0F2" opacity="1.000000" stroke="none" 
	d="
M305.064667,966.348755 
	C305.687439,964.304443 306.880035,962.629395 306.913116,960.931763 
	C307.097900,951.451111 306.949585,941.964478 307.050659,932.481262 
	C307.069031,930.759277 307.715729,929.044067 308.418549,927.160950 
	C321.443848,955.586731 336.254517,982.999634 354.591888,1008.379822 
	C362.373688,1019.150391 370.814514,1029.444824 378.965820,1040.702881 
	C378.650940,1045.517090 378.449646,1049.598755 377.968262,1053.647339 
	C377.432465,1058.153442 376.641602,1062.629395 375.961731,1067.118408 
	C361.310364,1048.722046 345.933380,1030.846069 332.246826,1011.757935 
	C322.062927,997.554749 314.068634,981.781555 305.064667,966.348755 
z"/>
<path fill="#6CD0F2" opacity="1.000000" stroke="none" 
	d="
M314.485229,561.304077 
	C313.708099,558.445374 312.845459,555.358521 312.768341,552.252258 
	C312.523712,542.397888 312.572266,532.536194 312.263702,522.343384 
	C323.008331,504.905884 333.081696,487.116974 345.237946,470.888275 
	C357.836029,454.069672 372.452789,438.763245 386.534485,423.119751 
	C386.623932,427.885834 386.006958,432.343872 386.207245,436.764862 
	C386.410583,441.253113 387.420380,445.704865 388.076965,450.172607 
	C374.604675,467.651917 360.084686,484.439148 347.952667,502.803864 
	C335.659210,521.413025 325.726166,541.581543 314.485229,561.304077 
z"/>
<path fill="#69B1F1" opacity="1.000000" stroke="none" 
	d="
M559.991638,1190.011841 
	C546.396179,1184.408936 532.620117,1179.202637 519.245972,1173.113647 
	C497.151855,1163.054688 476.284576,1150.745605 456.106384,1136.235840 
	C456.282288,1128.037964 456.639526,1120.579590 456.996765,1113.121094 
	C465.304749,1118.508545 473.566711,1123.968506 481.929504,1129.269653 
	C506.771759,1145.016846 532.985229,1158.044189 560.628113,1169.248779 
	C560.551147,1176.591309 560.271423,1183.301514 559.991638,1190.011841 
z"/>
<path fill="#587CCE" opacity="1.000000" stroke="none" 
	d="
M1093.320557,795.999878 
	C1093.320557,684.214783 1093.320557,572.929688 1093.320557,461.405518 
	C1095.347656,461.405518 1096.765625,461.405518 1098.483032,461.405518 
	C1098.483032,591.935242 1098.483032,722.212341 1098.483032,852.989929 
	C1097.056519,853.067932 1095.495605,853.153320 1093.320435,853.272278 
	C1093.320435,834.038391 1093.320435,815.269165 1093.320557,795.999878 
z"/>
<path fill="#6185E1" opacity="1.000000" stroke="none" 
	d="
M1133.007446,737.000000 
	C1133.007446,644.908142 1133.007446,553.316223 1133.007446,461.472229 
	C1135.077393,461.472229 1136.646851,461.472229 1138.512939,461.472229 
	C1138.512939,591.958496 1138.512939,722.190002 1138.512939,852.821899 
	C1136.922974,852.821899 1135.209473,852.821899 1133.007446,852.821899 
	C1133.007446,814.364929 1133.007446,775.932495 1133.007446,737.000000 
z"/>
<path fill="#6BC2F2" opacity="1.000000" stroke="none" 
	d="
M456.670898,1112.987915 
	C456.639526,1120.579590 456.282288,1128.037964 455.893921,1135.995361 
	C428.100128,1118.044800 403.261566,1096.162476 380.277344,1072.103882 
	C378.900909,1070.663086 377.550873,1069.197021 376.075165,1067.430542 
	C376.641602,1062.629395 377.432465,1058.153442 377.968262,1053.647339 
	C378.449646,1049.598755 378.650940,1045.517090 379.070374,1041.012573 
	C394.741028,1056.227051 410.013153,1072.198730 426.013275,1087.404297 
	C434.846924,1095.799194 444.909424,1102.899536 454.391479,1110.616211 
	C455.148560,1111.232300 455.698700,1112.102539 456.670898,1112.987915 
z"/>
<path fill="#6BC2F2" opacity="1.000000" stroke="none" 
	d="
M388.383057,450.028168 
	C387.420380,445.704865 386.410583,441.253113 386.207245,436.764862 
	C386.006958,432.343872 386.623932,427.885834 386.835876,422.947510 
	C402.199829,408.617798 417.285248,394.397278 433.140778,381.094635 
	C442.882965,372.920990 453.803131,366.151398 464.557831,359.110596 
	C465.276672,366.962189 465.631989,374.454498 465.987335,381.946838 
	C441.629547,399.375214 418.632660,418.396515 397.933289,440.105164 
	C394.837952,443.351410 391.769867,446.623566 388.383057,450.028168 
z"/>
<path fill="#69B1F1" opacity="1.000000" stroke="none" 
	d="
M466.323914,381.876831 
	C465.631989,374.454498 465.276672,366.962189 464.888794,358.966797 
	C488.850616,342.282684 514.448669,329.122467 541.134155,318.020477 
	C545.407288,316.242737 549.750427,314.633423 554.713135,313.245178 
	C555.576538,320.311890 555.787964,327.079620 555.999451,333.847412 
	C537.282654,342.888763 518.327637,351.476624 499.935944,361.137054 
	C488.406189,367.193176 477.723328,374.861694 466.323914,381.876831 
z"/>
<path fill="#668AEC" opacity="1.000000" stroke="none" 
	d="
M1116.030029,678.000000 
	C1116.030029,605.684326 1116.030029,533.868713 1116.030029,461.652954 
	C1117.614136,461.486603 1119.004639,461.340576 1120.827148,461.149170 
	C1120.827148,591.873474 1120.827148,722.247131 1120.827148,852.902222 
	C1119.406860,852.902222 1118.002563,852.902222 1116.030029,852.902222 
	C1116.030029,794.721130 1116.030029,736.610535 1116.030029,678.000000 
z"/>
<path fill="#69A3F0" opacity="1.000000" stroke="none" 
	d="
M560.228271,1190.286133 
	C560.271423,1183.301514 560.551147,1176.591309 560.903198,1169.474121 
	C580.247559,1174.844360 599.430908,1180.945190 618.828369,1186.265259 
	C628.840027,1189.011108 639.232361,1190.369141 649.743896,1193.067383 
	C650.026367,1200.165161 650.017639,1206.549805 650.008911,1212.934570 
	C635.284729,1210.092773 620.402039,1207.881836 605.879578,1204.236084 
	C590.562317,1200.390991 575.588684,1195.176514 560.228271,1190.286133 
z"/>
<path fill="#69A3F0" opacity="1.000000" stroke="none" 
	d="
M556.371338,333.846436 
	C555.787964,327.079620 555.576538,320.311890 555.087524,313.221497 
	C572.516296,307.275818 590.095581,301.198822 607.974792,296.192871 
	C619.476685,292.972473 631.419434,291.326508 643.585571,289.477112 
	C644.011475,296.334961 644.016235,302.690552 644.020996,309.046143 
	C632.640564,311.632904 621.099487,313.669037 609.916504,316.932373 
	C592.066956,322.141144 574.455383,328.165833 556.371338,333.846436 
z"/>
<path fill="#6895EF" opacity="1.000000" stroke="none" 
	d="
M644.457031,309.096375 
	C644.016235,302.690552 644.011475,296.334961 644.009644,289.514069 
	C652.651245,287.720978 661.250122,285.710052 669.936646,285.204529 
	C689.288452,284.078339 708.683960,283.704590 728.528320,283.550110 
	C729.326172,290.329681 729.657471,296.583435 729.988770,302.837158 
	C701.450073,302.600891 673.085327,304.710388 644.457031,309.096375 
z"/>
<path fill="#668AEC" opacity="1.000000" stroke="none" 
	d="
M800.606873,1191.054199 
	C801.361816,1197.434937 801.690735,1203.782104 802.027344,1210.601318 
	C802.035034,1211.073608 801.850586,1211.290283 801.447510,1211.260254 
	C800.729309,1211.390137 800.414185,1211.550049 800.099121,1211.709961 
	C774.230652,1216.201538 748.204773,1218.732300 721.454712,1217.455444 
	C721.327698,1210.679932 721.661865,1204.436157 721.996094,1198.192505 
	C748.239319,1197.782227 774.300293,1195.385254 800.606873,1191.054199 
z"/>
<path fill="#69A3F0" opacity="1.000000" stroke="none" 
	d="
M842.629517,777.794189 
	C836.787170,777.060303 834.454163,773.822449 834.474121,768.533325 
	C834.509888,759.040527 834.401489,749.546448 834.510193,740.054688 
	C834.583801,733.628784 837.310486,730.997437 843.690674,730.929565 
	C849.519043,730.867554 855.349976,730.840759 861.177307,730.941772 
	C866.860046,731.040222 869.763916,733.862671 869.838867,739.613464 
	C869.966919,749.437866 869.973022,759.266541 869.833252,769.090698 
	C869.753784,774.676941 866.754333,777.617126 861.050476,777.782898 
	C855.060059,777.957031 849.060486,777.817932 842.629517,777.794189 
z"/>
<path fill="#668AEC" opacity="1.000000" stroke="none" 
	d="
M730.431641,302.912048 
	C729.657471,296.583435 729.326172,290.329681 728.991821,283.618286 
	C746.791931,284.287750 764.603455,285.300598 782.393250,286.608307 
	C788.085815,287.026794 793.721008,288.226074 799.962280,289.324158 
	C800.898010,289.645752 801.253906,289.711304 801.609741,289.776855 
	C801.609741,289.776855 801.872192,289.677826 801.960205,289.787567 
	C802.031860,296.319122 802.015503,302.740936 801.992920,309.638916 
	C791.022827,308.672272 780.086914,306.945740 769.087830,305.861084 
	C756.379211,304.607849 743.614746,303.920197 730.431641,302.912048 
z"/>
<path fill="#6895EF" opacity="1.000000" stroke="none" 
	d="
M721.533264,1198.116943 
	C721.661865,1204.436157 721.327698,1210.679932 720.990540,1217.380859 
	C697.402161,1218.779175 673.994019,1216.968994 650.356934,1213.122192 
	C650.017639,1206.549805 650.026367,1200.165161 650.054077,1193.300781 
	C666.259644,1194.349854 682.434265,1196.027710 698.638428,1197.340210 
	C706.085876,1197.943359 713.591309,1197.829834 721.533264,1198.116943 
z"/>
<path fill="#668AEC" opacity="1.000000" stroke="none" 
	d="
M1082.058228,887.547424 
	C1078.695435,887.975769 1075.522583,889.414673 1072.345703,889.423645 
	C1065.093872,889.444275 1059.632812,884.170593 1058.861084,877.233215 
	C1057.873413,868.352600 1062.097168,861.022583 1069.365234,859.003906 
	C1076.336182,857.067810 1083.233276,860.471375 1086.005859,868.192993 
	C1089.934814,879.134888 1089.297607,890.271301 1084.219604,900.668152 
	C1079.620239,910.085083 1068.605469,911.673096 1059.836182,904.568726 
	C1060.924316,903.209839 1062.016357,901.846008 1063.123047,900.463867 
	C1068.967407,906.248718 1076.480713,905.192261 1079.694702,897.971863 
	C1081.081543,894.856201 1081.427490,891.277161 1082.058228,887.547424 
M1081.978516,881.434082 
	C1081.465942,877.096191 1081.422729,872.631531 1080.296631,868.459229 
	C1079.344849,864.933655 1076.167236,863.538818 1072.391113,863.777771 
	C1068.563354,864.019897 1066.306396,866.141296 1065.051025,869.528015 
	C1063.206909,874.502747 1064.382324,880.279358 1067.683105,882.880798 
	C1071.383057,885.796753 1076.400024,885.488281 1081.978516,881.434082 
z"/>
<path fill="#6185E1" opacity="1.000000" stroke="none" 
	d="
M1193.185303,903.213257 
	C1198.124146,903.213257 1202.590210,903.213257 1207.332031,903.213257 
	C1207.332031,904.872681 1207.332031,906.288147 1207.332031,908.047974 
	C1197.681396,908.047974 1188.134277,908.047974 1177.131836,908.047974 
	C1178.536255,905.305908 1179.201050,902.988220 1180.647095,901.367615 
	C1185.852173,895.534302 1191.662354,890.210205 1196.541870,884.130493 
	C1198.895874,881.197693 1200.578491,877.109741 1200.998779,873.368896 
	C1201.891724,865.417847 1195.733276,861.262756 1188.385132,864.633240 
	C1185.686157,865.871338 1183.576660,868.394836 1180.675049,870.758057 
	C1180.170776,870.398376 1178.906128,869.496338 1177.713623,868.645691 
	C1180.443237,860.568909 1191.180664,856.455933 1199.020508,859.541321 
	C1205.899292,862.248535 1209.803833,870.596680 1205.776367,878.421875 
	C1201.992920,885.773010 1195.802490,891.894775 1190.590210,898.493591 
	C1189.508545,899.863220 1188.071045,900.951965 1185.707031,903.213257 
	C1188.922852,903.213257 1190.817749,903.213257 1193.185303,903.213257 
z"/>
<path fill="#6895EF" opacity="1.000000" stroke="none" 
	d="
M1050.828369,892.406860 
	C1051.797363,897.914612 1047.615112,895.286682 1045.139648,896.729675 
	C1045.139648,900.075073 1045.139648,903.956787 1045.139648,908.083191 
	C1042.792358,908.083191 1041.037720,908.083191 1038.825439,908.083191 
	C1038.825439,904.099365 1038.825439,900.338989 1038.825439,896.150146 
	C1031.627930,896.150146 1024.868774,896.150146 1017.003540,896.150146 
	C1017.948303,893.387207 1018.253845,891.096191 1019.403381,889.365845 
	C1025.483521,880.213318 1031.667969,871.124146 1038.085815,862.206970 
	C1039.369873,860.422791 1041.824341,859.481018 1044.922241,857.329041 
	C1044.922241,869.836609 1044.922241,880.455505 1044.922241,891.100159 
	C1047.111084,891.440735 1048.890625,891.717651 1050.828369,892.406860 
M1038.888062,888.128357 
	C1038.888062,882.229065 1038.888062,876.329773 1038.888062,870.430542 
	C1038.598267,870.325378 1038.308472,870.220276 1038.018677,870.115173 
	C1033.548706,877.006531 1029.078613,883.897888 1024.113403,891.552856 
	C1028.918823,891.552856 1032.549316,891.726562 1036.142700,891.437927 
	C1037.114136,891.359985 1037.972900,889.881470 1038.888062,888.128357 
z"/>
<path fill="#668AEC" opacity="1.000000" stroke="none" 
	d="
M1156.036865,863.907288 
	C1159.396973,859.067444 1159.396973,859.067444 1163.946289,859.171143 
	C1163.946289,869.717957 1163.946289,880.293030 1163.946289,891.070679 
	C1166.154419,891.363892 1167.910278,891.597046 1169.914429,891.863098 
	C1169.914429,893.197937 1169.914429,894.443787 1169.914429,895.899902 
	C1168.174805,896.013855 1166.548950,896.120300 1164.301514,896.267456 
	C1164.301514,900.147278 1164.301514,904.019287 1164.301514,908.112244 
	C1161.918457,908.112244 1160.159912,908.112244 1157.990234,908.112244 
	C1157.990234,904.128845 1157.990234,900.372131 1157.990234,896.163818 
	C1150.841309,896.163818 1144.083618,896.163818 1136.262085,896.163818 
	C1137.218018,893.397644 1137.538208,891.113953 1138.686523,889.378113 
	C1144.286255,880.913269 1150.107056,872.594849 1156.036865,863.907288 
M1148.870605,891.571838 
	C1151.807617,891.571838 1154.744629,891.571838 1157.634521,891.571838 
	C1157.634521,884.138000 1157.634521,877.323364 1157.634521,869.421509 
	C1152.690063,877.125305 1148.347656,883.890930 1143.679077,891.164917 
	C1145.509277,891.336609 1146.761963,891.454041 1148.870605,891.571838 
z"/>
<path fill="#668AEC" opacity="1.000000" stroke="none" 
	d="
M1113.488770,883.285706 
	C1115.764282,876.852844 1117.874878,870.775879 1120.180054,864.138794 
	C1112.994507,864.138794 1106.285522,864.138794 1099.313477,864.138794 
	C1099.313477,862.295715 1099.313477,860.910034 1099.313477,859.247192 
	C1108.462646,859.247192 1117.550659,859.247192 1127.543579,859.247192 
	C1127.023193,861.485657 1126.709351,863.666992 1126.008423,865.715820 
	C1121.604858,878.584290 1116.949951,891.369690 1112.753052,904.304199 
	C1111.464966,908.274231 1109.529541,909.165222 1105.491699,907.762085 
	C1108.123413,899.656921 1110.723633,891.649292 1113.488770,883.285706 
z"/>
<path fill="#6895EF" opacity="1.000000" stroke="none" 
	d="
M901.557678,692.258423 
	C908.126953,695.893677 908.551147,699.953247 903.493652,704.844482 
	C902.510071,705.795837 901.925842,707.599670 901.896973,709.025269 
	C901.742065,716.669739 901.916626,724.320496 901.793091,731.966125 
	C901.663635,739.975952 899.243530,742.083008 891.260681,742.453369 
	C888.300354,742.590698 885.412659,744.157593 882.446228,744.343323 
	C880.119507,744.489014 876.589417,744.252014 875.662781,742.833496 
	C874.656189,741.292542 875.226990,737.267090 876.621277,736.034851 
	C877.925964,734.881653 881.278992,735.655701 883.596497,736.177185 
	C885.124146,736.520935 886.347168,738.588257 887.822083,738.736694 
	C897.156128,739.676453 898.119324,738.691711 898.124268,729.314270 
	C898.127075,723.994202 898.160461,718.673889 898.112793,713.354248 
	C898.078552,709.531799 898.490417,706.070923 894.877075,702.722107 
	C890.659851,698.813599 894.492737,692.822998 901.557678,692.258423 
M902.396729,700.789429 
	C903.658447,698.302307 902.919128,696.416199 900.216248,696.228699 
	C899.252441,696.161804 897.214844,698.171509 897.289612,699.103210 
	C897.497498,701.691895 899.269531,702.688965 902.396729,700.789429 
z"/>
<path fill="#69A3F0" opacity="1.000000" stroke="none" 
	d="
M827.814941,718.671753 
	C832.806885,720.535583 837.247375,722.266113 841.693909,717.696899 
	C842.806946,716.553162 846.976746,716.889832 848.494995,718.104370 
	C849.723938,719.087402 850.069458,723.306458 849.016785,724.468201 
	C847.710693,725.909607 844.570801,725.952087 842.200623,726.047974 
	C841.131531,726.091125 839.908936,724.089172 838.925354,724.226685 
	C827.963745,725.758972 821.230286,717.948547 813.274780,712.866760 
	C809.631226,710.539429 806.725647,707.229614 801.355103,708.455322 
	C797.734131,709.281738 794.716309,705.186096 794.873291,701.271545 
	C795.026794,697.442261 798.184326,694.339478 801.954956,694.312805 
	C805.735291,694.286072 809.618774,697.474670 808.913757,701.145142 
	C808.145264,705.146179 810.372375,706.428101 812.820251,708.125793 
	C817.732971,711.533203 822.608215,714.994629 827.814941,718.671753 
M800.693970,698.111877 
	C800.107239,699.750366 799.176392,701.379333 799.131042,703.032715 
	C799.116272,703.569946 801.576782,704.818787 802.613525,704.562439 
	C803.676941,704.299561 805.324280,702.115540 805.067261,701.608948 
	C804.335144,700.166138 802.763550,699.149292 800.693970,698.111877 
z"/>
<path fill="#69A3F0" opacity="1.000000" stroke="none" 
	d="
M829.926147,765.922913 
	C829.203552,768.411682 828.878296,771.822388 827.424194,772.402405 
	C825.529968,773.157776 822.762268,771.405029 820.330872,771.198914 
	C815.554810,770.793945 810.751038,770.604431 805.960083,770.626099 
	C805.334961,770.628906 804.232910,772.376770 804.179260,773.361450 
	C803.916992,778.174561 803.801880,783.007629 803.965576,787.822388 
	C803.998962,788.802551 805.377686,789.814148 806.268677,790.674011 
	C809.571899,793.862183 809.813171,798.187012 806.793091,801.297119 
	C803.846619,804.331665 798.889343,804.168396 796.171326,800.947388 
	C793.456970,797.730835 794.178101,793.457703 797.436218,790.295654 
	C798.739258,789.031128 799.673462,786.934387 799.897339,785.108826 
	C800.299744,781.827209 799.900146,778.456421 800.085144,775.136841 
	C800.431091,768.932373 803.403442,766.262817 809.577759,765.972351 
	C814.001526,765.764099 818.533630,767.194275 822.618530,763.334045 
	C824.645264,761.418762 828.057556,762.671021 829.926147,765.922913 
M800.854309,799.720520 
	C802.249207,798.676025 803.918396,797.825928 804.877197,796.472473 
	C805.177063,796.049072 803.781799,793.643250 802.761597,793.284363 
	C801.725708,792.919861 799.114502,793.890198 799.080383,794.401917 
	C798.971436,796.033325 799.739990,797.723267 800.854309,799.720520 
z"/>
<path fill="#6895EF" opacity="1.000000" stroke="none" 
	d="
M895.303101,793.708862 
	C902.410339,788.262085 899.852539,780.890015 899.703186,774.281433 
	C899.669373,772.782227 896.923035,770.099976 895.439941,770.110168 
	C890.893982,770.141357 885.972717,768.262085 881.762695,772.389465 
	C880.745605,773.386719 876.532715,772.732117 875.277100,771.416931 
	C874.070251,770.152771 873.856262,766.318237 874.922119,764.952393 
	C876.042358,763.516907 880.400391,762.477234 881.255432,763.338257 
	C884.766968,766.874573 888.824646,765.976624 892.835388,766.009583 
	C900.783936,766.074951 903.594116,768.771179 903.827148,776.791626 
	C903.914185,779.788757 903.660095,782.807007 903.927124,785.782898 
	C904.056580,787.225464 904.642761,789.097412 905.691711,789.900757 
	C909.121399,792.527405 910.230713,795.718994 908.440063,799.509705 
	C906.820007,802.939392 903.711365,804.203979 900.059570,803.112793 
	C895.576599,801.773254 894.388855,798.396667 895.303101,793.708862 
M900.068542,793.591187 
	C900.003967,795.331055 899.641296,797.148865 900.063110,798.761475 
	C900.183838,799.223145 902.908813,799.639221 903.832031,799.077515 
	C904.765991,798.509277 905.677979,795.907654 905.325317,795.583679 
	C904.094727,794.453064 902.312805,793.922607 900.068542,793.591187 
z"/>
<path fill="#69A3F0" opacity="1.000000" stroke="none" 
	d="
M853.970459,722.662842 
	C855.005432,718.475403 856.289612,714.729553 857.137634,710.887329 
	C857.937073,707.265808 856.249695,705.670410 852.468994,706.039551 
	C849.998535,706.280762 847.439026,705.795410 845.007202,706.184387 
	C843.310181,706.455872 841.421570,707.313293 840.213074,708.509521 
	C836.997681,711.691956 832.660400,712.235779 829.576172,709.424500 
	C826.373352,706.505188 826.333496,701.780396 829.486694,698.828735 
	C832.567261,695.945129 836.957703,696.505188 840.157593,699.567505 
	C841.698364,701.041992 844.103699,701.643921 846.169189,702.519104 
	C846.733093,702.757996 847.484009,702.555420 848.149109,702.555542 
	C859.949219,702.557861 859.924072,702.559998 860.923889,714.189026 
	C861.011414,715.207642 861.469666,716.426086 862.178589,717.119080 
	C865.101379,719.976379 865.424438,722.920715 862.420959,725.707275 
	C859.736755,728.197510 856.776245,727.140076 853.970459,722.662842 
M834.493896,700.661499 
	C833.361877,701.974243 831.959106,703.165100 831.277527,704.680420 
	C831.094177,705.087952 833.031494,707.119385 834.127808,707.244568 
	C835.230835,707.370544 837.582764,705.851196 837.499817,705.400269 
	C837.202087,703.782288 836.105225,702.311401 834.493896,700.661499 
z"/>
<path fill="#69A3F0" opacity="1.000000" stroke="none" 
	d="
M819.178345,788.255615 
	C821.501465,786.915222 823.584473,785.426270 825.847412,785.065369 
	C831.691223,784.133057 837.981262,786.657959 843.505493,782.284058 
	C844.349243,781.615967 848.252319,783.153564 849.105774,784.621460 
	C849.963135,786.096069 849.518433,789.713745 848.300293,790.657654 
	C846.783936,791.832642 842.959167,792.283264 841.750916,791.214966 
	C836.241333,786.343384 830.030762,789.537598 824.207520,788.985107 
	C823.567810,788.924377 822.086670,790.548523 822.197754,791.179565 
	C822.470947,792.731018 823.095093,794.530579 824.199280,795.571045 
	C828.477356,799.601929 828.126648,805.544006 823.187866,808.010071 
	C819.691956,809.755676 816.576965,808.898254 814.297241,805.934143 
	C811.993469,802.938721 811.802856,799.111572 814.789551,796.963867 
	C817.962646,794.682129 818.370544,791.771790 819.178345,788.255615 
M816.849731,801.626770 
	C818.132019,802.764709 819.277466,804.229919 820.773804,804.855408 
	C821.268921,805.062317 823.319641,803.196411 823.470520,802.112793 
	C823.620483,801.036316 822.127563,798.684570 821.613281,798.755798 
	C819.989624,798.980713 818.486938,800.079163 816.849731,801.626770 
z"/>
<path fill="#6895EF" opacity="1.000000" stroke="none" 
	d="
M870.038452,784.945374 
	C877.695435,785.091797 878.400818,785.741699 879.890320,792.425354 
	C880.163269,793.650146 881.232239,794.841248 882.216248,795.737915 
	C885.726318,798.936035 886.111267,803.577820 882.976746,806.711182 
	C880.030396,809.656433 875.615845,809.619019 872.719849,806.624329 
	C869.707458,803.509155 870.322205,798.991089 873.756897,795.629456 
	C874.920532,794.490479 875.874817,792.310059 875.610474,790.842285 
	C875.445251,789.924500 872.864136,789.003052 871.299255,788.867737 
	C868.101318,788.591309 864.999146,788.336487 862.237915,791.332764 
	C861.278137,792.374207 856.946533,791.744934 855.473877,790.416626 
	C854.323425,789.378845 854.290100,785.089905 855.424133,784.036011 
	C856.878845,782.684143 860.034973,782.713135 862.394592,782.909546 
	C864.834106,783.112610 867.197632,784.228577 870.038452,784.945374 
M876.138184,798.810242 
	C875.919312,800.546143 875.413147,802.327454 875.676025,803.987061 
	C875.744873,804.421753 878.505554,805.056274 879.475220,804.545593 
	C880.439941,804.037537 881.505859,801.533020 881.126404,801.081665 
	C880.087463,799.845886 878.311584,799.229675 876.138184,798.810242 
z"/>
<path fill="#6895EF" opacity="1.000000" stroke="none" 
	d="
M877.578674,749.233032 
	C879.242004,749.249756 881.098389,748.912720 881.727783,749.638977 
	C885.301941,753.763062 889.973816,752.257019 894.254456,752.276306 
	C895.739990,752.283020 897.568909,751.250732 898.658508,750.127747 
	C902.157166,746.521973 906.329834,745.979980 909.580017,749.070984 
	C912.590210,751.933594 912.671143,756.357483 909.767639,759.328552 
	C906.717285,762.450012 902.093933,762.074036 898.869019,758.442200 
	C896.531006,755.809143 886.594299,754.774109 883.967468,757.249695 
	C881.051575,759.997620 878.113647,760.858154 875.395081,757.711060 
	C872.649841,754.533142 873.841736,751.559082 877.578674,749.233032 
M901.294128,753.625793 
	C902.385803,755.015564 903.306580,756.643066 904.684875,757.634094 
	C905.046143,757.893860 907.440002,756.376831 907.783264,755.314697 
	C908.123291,754.262512 907.058044,751.647034 906.600525,751.645020 
	C904.935791,751.637573 903.267578,752.437500 901.294128,753.625793 
z"/>
<path fill="#69A3F0" opacity="1.000000" stroke="none" 
	d="
M806.012695,746.879395 
	C804.701172,746.943909 803.071960,747.534485 802.139587,746.971252 
	C799.645996,745.465027 796.570801,743.914429 795.358643,741.546204 
	C793.806641,738.513916 795.465271,734.748535 798.783752,733.860352 
	C801.360901,733.170654 805.181213,733.673401 807.244202,735.236389 
	C811.501282,738.461548 816.633118,738.934021 821.599426,736.040833 
	C823.257874,735.074707 827.154114,735.179565 828.037537,736.326843 
	C829.249084,737.900513 829.437378,741.464417 828.402832,743.164429 
	C827.647217,744.406128 823.670776,745.034424 822.066284,744.179382 
	C815.228333,740.535767 811.173218,740.785522 806.008667,746.572998 
	C806.006592,746.926208 806.012695,746.879395 806.012695,746.879395 
M799.133911,738.274170 
	C799.757874,739.885315 800.123779,741.705811 801.159912,742.982361 
	C801.478760,743.375122 804.148499,742.656311 804.792725,741.762512 
	C805.426025,740.883850 805.187073,738.096130 804.751770,737.957031 
	C803.167480,737.450378 801.340637,737.702026 799.133911,738.274170 
z"/>
<path fill="#6185E1" opacity="1.000000" stroke="none" 
	d="
M1113.091431,1025.095459 
	C1109.924805,1024.088501 1106.836060,1023.569092 1102.905273,1022.907959 
	C1102.905273,1029.196899 1102.905273,1034.382324 1102.905273,1040.005005 
	C1099.785278,1037.952148 1099.190063,1031.659058 1100.524292,1020.805908 
	C1108.598145,1020.805908 1116.735840,1020.693237 1124.864014,1020.918091 
	C1126.198486,1020.955017 1128.567505,1022.405334 1128.628052,1023.322876 
	C1128.986206,1028.760864 1128.804688,1034.234497 1128.804688,1039.696045 
	C1128.110718,1039.713257 1127.416870,1039.730469 1126.722900,1039.747681 
	C1126.605591,1036.010132 1126.162231,1032.246582 1126.456177,1028.541626 
	C1126.799561,1024.212769 1125.037231,1023.250977 1121.027588,1023.263245 
	C1117.109619,1023.275269 1115.633667,1024.393921 1115.987427,1028.394653 
	C1116.315308,1032.102783 1116.057251,1035.862793 1115.007080,1039.694336 
	C1112.407593,1035.248657 1113.593262,1030.292969 1113.091431,1025.095459 
z"/>
<path fill="#6185E1" opacity="1.000000" stroke="none" 
	d="
M1020.300049,1036.000000 
	C1026.504517,1036.510620 1032.607910,1036.510620 1039.057373,1036.510620 
	C1037.603760,1040.123413 1031.922119,1040.718750 1017.894592,1039.494873 
	C1017.894592,1031.854126 1017.894592,1024.169922 1017.894592,1016.063782 
	C1025.060181,1016.291626 1032.050293,1015.636414 1038.954468,1016.438416 
	C1038.951050,1017.133423 1038.947754,1017.828369 1038.944336,1018.523376 
	C1032.839722,1018.523376 1026.735107,1018.523376 1020.402405,1018.523376 
	C1020.402405,1021.432434 1020.402405,1023.531860 1020.402405,1026.622803 
	C1025.302246,1026.622803 1030.253662,1026.622803 1035.205078,1026.622803 
	C1035.235229,1027.304932 1035.265259,1027.987061 1035.295410,1028.669189 
	C1030.479126,1028.669189 1025.662720,1028.669189 1020.198792,1028.669189 
	C1020.198792,1031.642944 1020.198792,1033.566162 1020.300049,1036.000000 
z"/>
<path fill="#69A3F0" opacity="1.000000" stroke="none" 
	d="
M805.987549,746.936035 
	C806.052856,747.250549 806.170105,747.827087 806.216858,747.821472 
	C814.017273,746.875732 814.017090,746.874084 818.652039,752.157532 
	C821.681824,750.182251 824.941956,745.994446 828.490479,750.642517 
	C829.607605,752.105774 829.383728,756.147888 828.134644,757.562561 
	C824.764709,761.379272 821.707642,758.160889 818.840088,755.466248 
	C818.010925,756.387756 817.366516,757.054016 816.778015,757.766479 
	C813.784119,761.391052 810.023193,762.106873 806.774292,759.652466 
	C803.568665,757.230713 803.042358,753.265259 805.429138,749.431580 
	C805.863953,748.733154 806.340759,748.060852 806.405396,747.127930 
	C806.012695,746.879395 806.006592,746.926208 805.987549,746.936035 
M810.630676,757.150146 
	C811.769409,755.869507 813.234192,754.725830 813.862671,753.230713 
	C814.070801,752.735718 812.215271,750.680725 811.139465,750.533325 
	C810.064209,750.385803 807.725464,751.864258 807.792114,752.399597 
	C807.992981,754.014282 809.094116,755.516968 810.630676,757.150146 
z"/>
<path fill="#587CCE" opacity="1.000000" stroke="none" 
	d="
M1056.013672,1038.791748 
	C1055.902954,1030.499878 1055.902954,1022.600952 1055.902954,1014.702026 
	C1056.470337,1014.574341 1057.037720,1014.446655 1057.604980,1014.318970 
	C1058.178711,1016.159546 1058.752441,1018.000183 1059.599365,1020.717468 
	C1062.676514,1020.717468 1066.250366,1020.781677 1069.820923,1020.699890 
	C1073.588013,1020.613708 1075.299316,1022.316223 1075.202515,1026.117065 
	C1075.086670,1030.666260 1075.175171,1035.220459 1075.175171,1039.772583 
	C1074.574585,1039.835693 1073.973999,1039.898926 1073.373413,1039.962036 
	C1073.022705,1038.618286 1072.485107,1037.290771 1072.365601,1035.926758 
	C1072.192139,1033.947632 1072.322632,1031.942139 1072.319824,1029.947876 
	C1072.311035,1023.485107 1072.310303,1023.485046 1065.816895,1023.478699 
	C1058.743530,1023.471741 1058.744385,1023.471802 1058.738281,1030.343506 
	C1058.736328,1032.670044 1058.934692,1035.026489 1058.604980,1037.306030 
	C1058.499390,1038.036499 1056.990967,1038.564209 1056.013672,1038.791748 
z"/>
<path fill="#6185E1" opacity="1.000000" stroke="none" 
	d="
M1077.650391,1036.077881 
	C1077.560059,1032.497681 1077.416626,1029.329956 1077.576050,1026.177612 
	C1077.647583,1024.761108 1078.190430,1022.219788 1078.747192,1022.155273 
	C1083.920532,1021.556152 1089.195435,1020.906616 1094.311646,1021.462585 
	C1095.443481,1021.585632 1096.110840,1026.397461 1096.883789,1029.081299 
	C1097.048828,1029.654419 1096.743164,1030.363281 1096.577148,1031.570923 
	C1091.296509,1031.570923 1086.042236,1031.570923 1080.845215,1031.570923 
	C1079.411743,1035.881836 1080.834473,1037.199463 1084.643433,1037.008179 
	C1088.683105,1036.805298 1092.741089,1036.962524 1097.027710,1036.962524 
	C1096.734131,1038.267822 1096.642456,1039.141846 1096.521484,1039.145874 
	C1091.252686,1039.322998 1085.974976,1039.586914 1080.715088,1039.392578 
	C1079.682739,1039.354370 1078.717041,1037.508667 1077.650391,1036.077881 
M1088.361328,1023.391663 
	C1087.044556,1023.392273 1085.718872,1023.491638 1084.412476,1023.375122 
	C1080.385254,1023.015991 1079.507935,1024.939331 1080.632080,1028.626465 
	C1085.007568,1028.626465 1089.376343,1028.626465 1093.785400,1028.626465 
	C1093.785400,1026.924805 1093.785400,1025.483154 1093.785400,1023.704773 
	C1092.144775,1023.591614 1090.697876,1023.491821 1088.361328,1023.391663 
z"/>
<path fill="#6185E1" opacity="1.000000" stroke="none" 
	d="
M1045.163696,1035.503906 
	C1047.746338,1036.445068 1050.236572,1036.943481 1052.726929,1037.441895 
	C1052.901489,1037.814819 1053.076172,1038.187622 1053.250732,1038.560547 
	C1052.029297,1038.976562 1050.644531,1039.978149 1049.619141,1039.692017 
	C1047.151367,1039.003174 1042.923340,1037.893555 1042.804321,1036.632812 
	C1042.138550,1029.581177 1042.462769,1022.433899 1042.549194,1015.320557 
	C1042.552979,1015.024597 1043.557739,1014.740967 1044.604492,1014.178406 
	C1044.878662,1016.510254 1045.099609,1018.389954 1045.352173,1020.537903 
	C1047.940796,1020.713623 1050.542236,1020.890198 1053.143555,1021.066711 
	C1053.165894,1021.642761 1053.188232,1022.218811 1053.210571,1022.794861 
	C1050.675781,1023.123718 1048.140991,1023.452515 1045.071411,1023.850769 
	C1045.071411,1027.530029 1045.071411,1031.295532 1045.163696,1035.503906 
z"/>
<path fill="#656BEF" opacity="1.000000" stroke="none" 
	d="
M801.409729,289.570190 
	C801.253906,289.711304 800.898010,289.645752 800.316284,289.428894 
	C800.463440,289.306244 800.836609,289.334900 801.409729,289.570190 
z"/>
<path fill="#656BEF" opacity="1.000000" stroke="none" 
	d="
M800.379211,1211.747559 
	C800.414185,1211.550049 800.729309,1211.390137 801.313782,1211.211670 
	C801.275208,1211.390503 800.967224,1211.587891 800.379211,1211.747559 
z"/>
<path fill="#000000" opacity="1.000000" stroke="none" 
	d="
M1081.735718,881.732788 
	C1076.400024,885.488281 1071.383057,885.796753 1067.683105,882.880798 
	C1064.382324,880.279358 1063.206909,874.502747 1065.051025,869.528015 
	C1066.306396,866.141296 1068.563354,864.019897 1072.391113,863.777771 
	C1076.167236,863.538818 1079.344849,864.933655 1080.296631,868.459229 
	C1081.422729,872.631531 1081.465942,877.096191 1081.735718,881.732788 
z"/>
<path fill="#000000" opacity="1.000000" stroke="none" 
	d="
M1038.885742,888.587036 
	C1037.972900,889.881470 1037.114136,891.359985 1036.142700,891.437927 
	C1032.549316,891.726562 1028.918823,891.552856 1024.113403,891.552856 
	C1029.078613,883.897888 1033.548706,877.006531 1038.018677,870.115173 
	C1038.308472,870.220276 1038.598267,870.325378 1038.888062,870.430542 
	C1038.888062,876.329773 1038.888062,882.229065 1038.885742,888.587036 
z"/>
<path fill="#000000" opacity="1.000000" stroke="none" 
	d="
M1148.442627,891.571655 
	C1146.761963,891.454041 1145.509277,891.336609 1143.679077,891.164917 
	C1148.347656,883.890930 1152.690063,877.125305 1157.634521,869.421509 
	C1157.634521,877.323364 1157.634521,884.138000 1157.634521,891.571838 
	C1154.744629,891.571838 1151.807617,891.571838 1148.442627,891.571655 
z"/>
<path fill="#000000" opacity="1.000000" stroke="none" 
	d="
M902.110107,701.055298 
	C899.269531,702.688965 897.497498,701.691895 897.289612,699.103210 
	C897.214844,698.171509 899.252441,696.161804 900.216248,696.228699 
	C902.919128,696.416199 903.658447,698.302307 902.110107,701.055298 
z"/>
<path fill="#000000" opacity="1.000000" stroke="none" 
	d="
M801.108093,698.038391 
	C802.763550,699.149292 804.335144,700.166138 805.067261,701.608948 
	C805.324280,702.115540 803.676941,704.299561 802.613525,704.562439 
	C801.576782,704.818787 799.116272,703.569946 799.131042,703.032715 
	C799.176392,701.379333 800.107239,699.750366 801.108093,698.038391 
z"/>
<path fill="#000000" opacity="1.000000" stroke="none" 
	d="
M800.511963,799.555542 
	C799.739990,797.723267 798.971436,796.033325 799.080383,794.401917 
	C799.114502,793.890198 801.725708,792.919861 802.761597,793.284363 
	C803.781799,793.643250 805.177063,796.049072 804.877197,796.472473 
	C803.918396,797.825928 802.249207,798.676025 800.511963,799.555542 
z"/>
<path fill="#000000" opacity="1.000000" stroke="none" 
	d="
M900.404480,793.377563 
	C902.312805,793.922607 904.094727,794.453064 905.325317,795.583679 
	C905.677979,795.907654 904.765991,798.509277 903.832031,799.077515 
	C902.908813,799.639221 900.183838,799.223145 900.063110,798.761475 
	C899.641296,797.148865 900.003967,795.331055 900.404480,793.377563 
z"/>
<path fill="#000000" opacity="1.000000" stroke="none" 
	d="
M834.902222,700.723206 
	C836.105225,702.311401 837.202087,703.782288 837.499817,705.400269 
	C837.582764,705.851196 835.230835,707.370544 834.127808,707.244568 
	C833.031494,707.119385 831.094177,705.087952 831.277527,704.680420 
	C831.959106,703.165100 833.361877,701.974243 834.902222,700.723206 
z"/>
<path fill="#000000" opacity="1.000000" stroke="none" 
	d="
M816.893555,801.233154 
	C818.486938,800.079163 819.989624,798.980713 821.613281,798.755798 
	C822.127563,798.684570 823.620483,801.036316 823.470520,802.112793 
	C823.319641,803.196411 821.268921,805.062317 820.773804,804.855408 
	C819.277466,804.229919 818.132019,802.764709 816.893555,801.233154 
z"/>
<path fill="#000000" opacity="1.000000" stroke="none" 
	d="
M876.482788,798.589233 
	C878.311584,799.229675 880.087463,799.845886 881.126404,801.081665 
	C881.505859,801.533020 880.439941,804.037537 879.475220,804.545593 
	C878.505554,805.056274 875.744873,804.421753 875.676025,803.987061 
	C875.413147,802.327454 875.919312,800.546143 876.482788,798.589233 
z"/>
<path fill="#000000" opacity="1.000000" stroke="none" 
	d="
M901.447388,753.279419 
	C903.267578,752.437500 904.935791,751.637573 906.600525,751.645020 
	C907.058044,751.647034 908.123291,754.262512 907.783264,755.314697 
	C907.440002,756.376831 905.046143,757.893860 904.684875,757.634094 
	C903.306580,756.643066 902.385803,755.015564 901.447388,753.279419 
z"/>
<path fill="#000000" opacity="1.000000" stroke="none" 
	d="
M799.369629,737.970947 
	C801.340637,737.702026 803.167480,737.450378 804.751770,737.957031 
	C805.187073,738.096130 805.426025,740.883850 804.792725,741.762512 
	C804.148499,742.656311 801.478760,743.375122 801.159912,742.982361 
	C800.123779,741.705811 799.757874,739.885315 799.369629,737.970947 
z"/>
<path fill="#000000" opacity="1.000000" stroke="none" 
	d="
M810.237488,757.106750 
	C809.094116,755.516968 807.992981,754.014282 807.792114,752.399597 
	C807.725464,751.864258 810.064209,750.385803 811.139465,750.533325 
	C812.215271,750.680725 814.070801,752.735718 813.862671,753.230713 
	C813.234192,754.725830 811.769409,755.869507 810.237488,757.106750 
z"/>
<path fill="#000000" opacity="1.000000" stroke="none" 
	d="
M1088.806152,1023.391846 
	C1090.697876,1023.491821 1092.144775,1023.591614 1093.785400,1023.704773 
	C1093.785400,1025.483154 1093.785400,1026.924805 1093.785400,1028.626465 
	C1089.376343,1028.626465 1085.007568,1028.626465 1080.632080,1028.626465 
	C1079.507935,1024.939331 1080.385254,1023.015991 1084.412476,1023.375122 
	C1085.718872,1023.491638 1087.044556,1023.392273 1088.806152,1023.391846 
z"/>
</svg>